# xmcd
#
# Track frame offsets:
#	150
#	864
#	20455
#	36079
#	55711
#	75605
#	101172
#	114050
#	138319
#	156282
#	171717
#	202283
#	221109
#
# Disc length: 3190 seconds
#
# Revision: 0
# Processed by: cddbd v1.4PL0 Copyright (c) Steve Scherf et al.
# Submitted via: EasyCDDAExtractor 4.6.9.1
#
DISCID=ac0c740d
DTITLE=Bad News Blues Band - Bad News Indeed
DYEAR=1997
DGENRE=Blues
TTITLE0=Intro
TTITLE1=One More and I Gotta Go
TTITLE2=She's Bad News
TTITLE3=99 1/2
TTITLE4=Cruisin' For a Bluesin'
TTITLE5=Leave My Little Girl Alone
TTITLE6=Hard Liquor
TTITLE7=Be My Shotgun
TTITLE8=Leavin' Fast
TTITLE9=Fever In The Funkhouse
TTITLE10=Messin' Round
TTITLE11=When You See Me
TTITLE12=Revvitup
EXTD=All songs written by Bad News Blues Band\n99 1/2 -Wilson Pickett\nLeave M
EXTD=y Little Girl alone - Buddy Guy\n
EXTT0=
EXTT1=
EXTT2=
EXTT3=
EXTT4=
EXTT5=
EXTT6=
EXTT7=
EXTT8=
EXTT9=
EXTT10=
EXTT11=
EXTT12=
PLAYORDER=
